<?xml version="1.0" encoding="utf-8"?>
<!-- Generator: Adobe Illustrator 24.2.0, SVG Export Plug-In . SVG Version: 6.00 Build 0)  -->
<svg version="1.1" id="exam" xmlns="http://www.w3.org/2000/svg" xmlns:xlink="http://www.w3.org/1999/xlink" x="0px" y="0px"
	 viewBox="0 0 191.91 112.41" style="enable-background:new 0 0 191.91 112.41;" xml:space="preserve">
<style type="text/css">
	.st0{fill:#99CC33;}
</style>
<g>
	<path d="M10.48,74.67V52.58h-1.9v22.09c0,5.74,4.67,10.42,10.42,10.42v-1.9C14.3,83.18,10.48,79.36,10.48,74.67z"/>
	<path d="M115.9,74.67V59.76h4.95v-1.9h-4.95v-5.28h-1.9v5.28h-3.4v1.9h3.4v14.91c0,5.74,4.67,10.42,10.42,10.42v-1.9
		C119.72,83.18,115.9,79.36,115.9,74.67z"/>
	<path d="M47.6,69.46V84.7h1.9V69.46c0-4.6,3.74-8.35,8.35-8.35v-1.9C52.2,59.2,47.6,63.8,47.6,69.46z"/>
	<path d="M72.66,58.97c-5.7,0-10.34,4.64-10.34,10.34V84.7h1.9V69.31c0-4.65,3.79-8.44,8.44-8.44s8.44,3.79,8.44,8.44V84.7H83V69.31
		C83,63.61,78.36,58.97,72.66,58.97z"/>
	<path d="M42.45,69.36L42.45,69.36L42.45,69.36c0-5.68-4.63-10.3-10.31-10.3c-5.68,0-10.31,4.62-10.31,10.31v5.41c0,0,0,0,0,0
		c0,5.68,4.63,10.3,10.31,10.3c4.34,0,8.24-2.74,9.7-6.83l-1.79-0.64c-1.19,3.33-4.37,5.57-7.91,5.57c-4.63,0-8.4-3.77-8.4-8.4
		v-1.14l18.71-4.05L42.45,69.36L42.45,69.36C42.45,69.37,42.45,69.37,42.45,69.36z M23.74,69.37c0-4.63,3.77-8.4,8.4-8.4
		c4.19,0,7.66,3.09,8.29,7.1l-16.7,3.62V69.37z"/>
	<path d="M147.39,83.18c-4.63,0-8.4-3.77-8.4-8.4v-5.41c0-4.63,3.77-8.4,8.4-8.4c3.29,0,6.3,1.94,7.66,4.94l1.73-0.79
		c-1.67-3.68-5.36-6.05-9.39-6.05c-5.68,0-10.31,4.62-10.31,10.31v5.41c0,0,0,0,0,0c0,5.68,4.63,10.3,10.31,10.3
		c4.34,0,8.24-2.74,9.71-6.83l-1.79-0.64C154.11,80.94,150.93,83.18,147.39,83.18z"/>
	<polygon points="182.23,84.84 183.56,83.47 169.1,69.48 181.91,60.66 180.83,59.09 163.48,71.04 163.48,52.58 161.58,52.58 
		161.58,84.69 163.48,84.69 163.48,73.36 167.5,70.59 	"/>
	<path d="M107.98,73.02l-17.97-3.88c0.07-4.57,3.81-8.27,8.4-8.27c3.54,0,6.72,2.24,7.91,5.57l1.79-0.64
		c-1.46-4.08-5.36-6.83-9.7-6.83c-5.68,0-10.3,4.62-10.31,10.3c0,0,0,0,0,0v0.63c0,0.25,0.11,0.51,0.29,0.68
		c0.13,0.13,0.29,0.22,0.47,0.26l17.95,3.88c-0.02,4.62-3.78,8.37-8.4,8.37c-3.63,0-6.84-2.31-7.98-5.76l-1.81,0.6
		c1.4,4.23,5.33,7.06,9.79,7.06c5.68,0,10.31-4.62,10.31-10.3l0.01-0.74C108.74,73.5,108.42,73.11,107.98,73.02z"/>
	<rect x="128.47" y="59.66" width="1.9" height="25.02"/>
	<path d="M129.42,52.51c-0.71,0-1.29,0.58-1.29,1.29s0.58,1.29,1.29,1.29s1.29-0.58,1.29-1.29S130.13,52.51,129.42,52.51z"/>
</g>
<g>
	<path d="M39.61,45.57H10.05c-0.94,0-1.7-0.76-1.7-1.7V14.32c0-0.94,0.76-1.7,1.7-1.7h29.56c0.94,0,1.7,0.76,1.7,1.7v29.56
		C41.31,44.81,40.55,45.57,39.61,45.57z"/>
	<g>
		<path class="st0" d="M78.95,27.89l-20.9-20.9c-0.66-0.66-1.74-0.66-2.41,0L42.32,20.31h10.56c0.94,0,1.7,0.76,1.7,1.7v14.16
			c0,0.94-0.76,1.7-1.7,1.7H42.32L55.65,51.2c0.66,0.66,1.74,0.66,2.41,0l20.9-20.9C79.62,29.63,79.62,28.56,78.95,27.89z"/>
	</g>
</g>
<g>
	<path class="st0" d="M9.79,92.9h7.71v2.6h-4.79v2.44h4.1v2.6h-4.1v2.78h4.98v2.6h-7.9V92.9z"/>
	<path class="st0" d="M26.19,99.22l-3.16-6.32h3.24l0.99,2.36c0.28,0.6,0.54,1.28,0.88,2.1h0.07c0.28-0.82,0.54-1.5,0.77-2.1
		l0.9-2.36h3.09l-3.15,6.46l3.35,6.56h-3.24l-1.14-2.56c-0.3-0.66-0.58-1.34-0.88-2.14h-0.07c-0.28,0.8-0.56,1.48-0.82,2.14
		l-1.07,2.56h-3.11L26.19,99.22z"/>
	<path class="st0" d="M41.57,92.9h3.48l3.8,13.01h-3.07l-0.71-3h-3.61l-0.71,3h-2.98L41.57,92.9z M42.02,100.52h2.49l-0.26-1.12
		c-0.32-1.28-0.64-2.82-0.96-4.18h-0.07c-0.3,1.36-0.62,2.9-0.94,4.18L42.02,100.52z"/>
	<path class="st0" d="M54.04,92.9h3.18l1.93,5.66c0.22,0.76,0.43,1.54,0.66,2.36h0.08c0.22-0.82,0.41-1.6,0.66-2.36l1.85-5.66h3.18
		v13.01h-2.64v-4.52c0-1.28,0.24-3.5,0.39-4.78h-0.08l-1.01,3.4l-1.65,4.8h-1.65l-1.63-4.8l-0.97-3.4h-0.08
		c0.15,1.28,0.39,3.5,0.39,4.78v4.52h-2.62V92.9z"/>
</g>
<g>
</g>
<g>
</g>
<g>
</g>
<g>
</g>
<g>
</g>
</svg>
